<svg width="248" height="30" viewBox="0 0 248 30" fill="none" xmlns="http://www.w3.org/2000/svg">
<path d="M123.83 0C124.109 0 124.331 0.87872 124.331 4.24161C124.331 7.6045 123.83 11.4186 123.83 11.4186C123.83 11.4186 123.328 7.6045 123.328 4.24161C123.328 0.87872 123.555 0 123.83 0ZM129.72 5.36732C129.304 5.35307 128.58 5.40532 127.577 5.90405C126.569 6.40754 125.765 7.348 125.382 8.14598C124.979 8.94395 124.908 9.55193 124.908 9.55193C124.908 9.55193 125.164 8.9962 125.699 8.35022C126.224 7.69474 127.047 7.01077 127.922 6.57378C128.798 6.1368 129.417 6.00855 129.782 5.89455C130.151 5.78531 130.288 5.69981 130.283 5.59056C130.283 5.49557 130.141 5.39107 129.72 5.36732ZM128.377 3.21564C128.112 3.22039 127.672 3.31539 127.066 3.65738C126.46 4.00412 125.959 4.57885 125.684 5.06333C125.401 5.54781 125.311 5.9183 125.311 5.9183C125.311 5.9183 125.571 5.63331 125.973 5.30557C126.375 4.96833 126.924 4.6121 127.444 4.30811C128.5 3.73812 128.826 3.61938 128.774 3.38664C128.75 3.29164 128.646 3.21564 128.377 3.21564ZM117.868 5.8993C118.232 6.0133 118.852 6.14154 119.728 6.57853C120.603 7.01552 121.426 7.69949 121.951 8.35497C122.481 9.00095 122.741 9.55668 122.741 9.55668C122.741 9.55668 122.67 8.9487 122.268 8.15073C121.885 7.35275 121.081 6.41229 120.073 5.9088C119.075 5.41007 118.346 5.35307 117.93 5.37207C117.509 5.39582 117.367 5.50032 117.367 5.60006C117.362 5.70456 117.499 5.79006 117.868 5.8993ZM120.21 4.31761C120.731 4.61685 121.284 4.97783 121.682 5.31507C122.084 5.64281 122.344 5.9278 122.344 5.9278C122.344 5.9278 122.254 5.55256 121.97 5.07283C121.696 4.58835 121.194 4.01362 120.589 3.66688C119.983 3.32489 119.543 3.22989 119.278 3.22514C119.008 3.22039 118.904 3.30114 118.881 3.40089C118.829 3.62888 119.15 3.74287 120.21 4.31761ZM241.892 28.9503C241.892 28.6938 241.684 28.4848 241.428 28.4848L143.56 28.3946C141.038 28.5893 138.516 28.3566 136.074 27.6916C133.624 27.0218 131.471 25.9769 129.668 24.5852C126.583 22.2055 124.705 19.0469 124.634 16.1447C124.629 15.8692 124.634 15.5985 124.658 15.323C124.913 11.9554 127.137 9.40469 130.321 8.81571C132.441 8.41672 135.223 8.8727 136.647 11.3236C137.413 12.6393 137.631 14.2923 137.229 15.7457C136.983 16.6292 136.401 17.8357 135.024 18.5909C133.95 19.1751 133.013 19.3319 132.233 19.0564C131.362 18.7476 130.596 18.1254 130.137 17.3512C129.474 16.2445 129.413 14.8433 129.976 13.7033C130.482 12.6773 131.386 12.0456 132.516 11.9174C132.772 11.8889 132.957 11.6609 132.928 11.4044C132.9 11.1479 132.673 10.9626 132.417 10.9911C130.979 11.1479 129.791 11.9886 129.148 13.2853C128.443 14.7103 128.518 16.4487 129.342 17.8262C129.924 18.7999 130.842 19.5456 131.925 19.9303C132.961 20.2961 134.154 20.1203 135.469 19.4031C136.77 18.6906 137.712 17.4794 138.128 15.988C138.596 14.297 138.346 12.3733 137.451 10.8439C136.056 8.44997 133.255 7.32426 130.156 7.89424C126.545 8.55921 124.024 11.4471 123.735 15.247C123.711 15.551 123.702 15.855 123.711 16.159C123.787 19.3414 125.803 22.766 129.105 25.3167C131.002 26.7844 133.269 27.8816 135.833 28.5798C138.383 29.2733 141.009 29.5203 143.597 29.3113L241.428 29.4015C241.684 29.4158 241.892 29.2115 241.892 28.9503ZM172.596 28.9455C172.643 28.6938 172.478 28.4516 172.222 28.4041C171.172 28.2093 170.311 28.0336 169.535 27.6298C168.574 27.1311 167.576 26.5706 166.388 25.8581C164.108 24.4902 161.95 22.8847 159.859 21.3268C158.61 20.3958 157.318 19.4364 156.008 18.5339C152.639 16.2065 148.622 13.8885 144.392 14.4015C141.615 14.734 138.998 16.1732 137.385 18.2489C136.108 19.8923 135.573 21.8113 135.828 23.7967C136.051 25.5304 137.007 27.0551 138.383 27.8768C140.006 28.8458 142.06 28.9455 143.616 28.1381C145.551 27.1311 146.204 24.4617 145.603 22.5997C145.102 21.0513 143.881 19.9873 142.415 19.8163C142.15 19.7831 141.927 19.9731 141.899 20.2248C141.87 20.4813 142.05 20.7141 142.306 20.7426C143.408 20.8661 144.331 21.6878 144.719 22.8847C145.192 24.3524 144.681 26.5279 143.186 27.3068C141.927 27.9623 140.186 27.8673 138.852 27.0741C137.74 26.4091 136.931 25.1077 136.746 23.678C136.524 21.9443 136.997 20.2676 138.114 18.8236C139.552 16.9664 141.998 15.627 144.496 15.3277C148.419 14.867 152.251 17.0709 155.478 19.3034C156.774 20.1963 158.061 21.151 159.301 22.0773C161.411 23.6447 163.592 25.2644 165.911 26.6561C167.112 27.3781 168.13 27.9481 169.104 28.4563C170.06 28.9503 171.162 29.1545 172.047 29.3208C172.076 29.3255 172.104 29.3303 172.132 29.3303C172.359 29.3303 172.553 29.1735 172.596 28.9455ZM178.207 29.3825C181.5 29.3303 184.652 28.5465 187.325 27.1168C190.93 25.1837 193.712 22.0013 194.952 18.3914C195.127 17.8832 195.274 17.3702 195.42 16.8572C195.789 15.5842 196.135 14.3825 196.859 13.3186C198.141 11.4424 200.558 9.73717 203.09 10.1504C204.613 10.4022 205.914 11.5184 206.255 12.8626C206.61 14.2685 205.768 15.8977 204.49 16.2777C203.847 16.4677 203.076 16.292 202.479 15.8217C201.94 15.399 201.647 14.8195 201.675 14.24C201.685 13.9835 201.491 13.765 201.235 13.7508C200.984 13.7223 200.762 13.936 200.748 14.1925C200.705 15.0807 201.131 15.9405 201.907 16.5532C202.74 17.2087 203.828 17.4414 204.755 17.1707C206.515 16.6482 207.637 14.525 207.159 12.6346C206.723 10.9151 205.148 9.54718 203.241 9.22894C200.118 8.71596 197.436 10.8249 196.092 12.7913C195.283 13.974 194.9 15.3087 194.526 16.5959C194.384 17.0947 194.237 17.5934 194.067 18.0826C192.903 21.474 190.282 24.4617 186.88 26.2904C184.339 27.6536 181.335 28.3993 178.189 28.4468C177.933 28.4515 177.73 28.6605 177.73 28.9218C177.734 29.1783 177.942 29.3825 178.193 29.3825C178.203 29.3825 178.203 29.3825 178.207 29.3825ZM193.045 21.7638C193.301 21.7305 193.48 21.4978 193.447 21.2413C193.39 20.7853 193.348 20.2913 193.305 19.7783C193.092 17.2467 192.827 14.0975 190.192 12.8198C188.508 12.0028 186.473 12.3448 185.243 13.6463C184.264 14.6818 183.876 16.235 184.254 17.6124C184.633 18.9851 185.759 20.1251 187.126 20.5098C187.372 20.5811 187.628 20.4338 187.699 20.1868C187.77 19.9398 187.623 19.6833 187.377 19.6121C186.317 19.3129 185.442 18.4294 185.148 17.3654C184.855 16.3015 185.158 15.0902 185.915 14.2923C186.871 13.2806 188.465 13.0193 189.79 13.6605C191.947 14.7055 192.179 17.4414 192.383 19.8591C192.425 20.3863 192.468 20.8898 192.529 21.36C192.558 21.5975 192.761 21.7685 192.988 21.7685C193.002 21.7685 193.026 21.7685 193.045 21.7638ZM240.572 28.8648C240.572 29.4918 241.253 30 242.961 30C244.669 30 248 29.4918 248 28.8648C248 28.2378 244.669 27.7296 242.961 27.7296C241.253 27.7296 240.572 28.2378 240.572 28.8648ZM151.276 13.1238C150.623 12.7676 149.455 12.2498 147.477 12.0788C145.495 11.9079 143.389 12.4446 141.975 13.1618C141.26 13.5085 140.697 13.879 140.319 14.1545C139.94 14.43 139.737 14.6105 139.737 14.6105C139.737 14.6105 139.978 14.4823 140.399 14.2923C140.82 14.1023 141.426 13.8505 142.159 13.632C143.621 13.1761 145.585 12.9291 147.401 13.0858C149.218 13.2426 150.325 13.613 151.011 13.784C151.693 13.9693 151.967 13.9835 152.029 13.8553C152.085 13.7365 151.929 13.4943 151.276 13.1238ZM143.758 5.12033C143.787 5.67606 143.905 6.60228 143.569 8.00348C143.228 9.39994 142.396 10.7584 141.568 11.6514C141.156 12.1026 140.768 12.4493 140.484 12.6821C140.196 12.9101 140.025 13.0431 140.025 13.0431C140.025 13.0431 140.219 12.9481 140.55 12.7771C140.877 12.5966 141.336 12.3211 141.828 11.9221C142.817 11.1431 143.914 9.76092 144.302 8.18398C144.681 6.61653 144.454 5.57631 144.283 5.01108C144.085 4.4411 143.933 4.27961 143.839 4.30811C143.735 4.3461 143.701 4.5646 143.758 5.12033ZM139.864 4.5456C140.044 4.96833 140.39 5.64281 140.569 6.83027C140.749 8.00823 140.621 9.32394 140.408 10.3262C140.304 10.8249 140.196 11.2571 140.101 11.5374C140.002 11.8224 139.86 11.9506 139.86 11.9506C139.86 11.9506 140.03 11.8651 140.205 11.5896C140.375 11.3189 140.565 10.9246 140.768 10.4354C141.17 9.47118 141.511 8.06048 141.312 6.72578C141.113 5.39582 140.631 4.64535 140.309 4.26061C139.973 3.87587 139.779 3.81887 139.703 3.88537C139.628 3.95187 139.675 4.12761 139.864 4.5456ZM150.254 9.96992C149.895 9.83217 149.266 9.68018 148.258 9.69443C147.245 9.71343 146.195 10.0222 145.466 10.3737C144.728 10.7204 144.288 11.0719 144.288 11.0719C144.288 11.0719 144.818 10.8866 145.585 10.7346C146.351 10.5684 147.349 10.4734 148.277 10.4544C149.204 10.4402 149.791 10.4972 150.155 10.5019C150.519 10.5067 150.666 10.4497 150.69 10.3452C150.713 10.2359 150.614 10.1124 150.254 9.96992ZM146.133 7.01077C145.977 7.538 145.821 8.11748 145.67 8.56872C145.523 9.01995 145.395 9.33819 145.395 9.33819C145.395 9.33819 145.674 9.13395 145.996 8.75396C146.323 8.37872 146.678 7.81824 146.853 7.22926C147.179 6.03705 146.957 5.69031 146.767 5.67606C146.545 5.66181 146.427 5.95155 146.133 7.01077ZM178.964 21.3838C179.021 21.873 179.021 22.5617 178.671 23.3455C178.349 24.1387 177.569 24.9082 176.32 25.4164C173.793 26.4091 170.68 26.1526 168.522 25.4972C167.425 25.1742 166.53 24.7799 165.911 24.4759C165.291 24.1719 164.945 23.9677 164.945 23.9677C164.945 23.9677 165.267 24.2099 165.854 24.5804C166.44 24.9462 167.306 25.4354 168.399 25.8581C170.557 26.7036 173.784 27.2118 176.599 26.1194C177.29 25.8344 177.876 25.4687 178.345 25.0364C178.818 24.5994 179.121 24.0912 179.31 23.621C179.688 22.6615 179.622 21.8398 179.485 21.284C179.149 20.1536 178.699 19.9636 178.657 20.0111C178.543 20.0776 178.808 20.3911 178.964 21.3838ZM176.528 20.9895C176.433 21.3505 176.253 21.816 175.894 22.3433C175.52 22.861 174.943 23.45 174.067 23.8775C172.27 24.7704 169.994 24.6897 168.324 24.4094C167.481 24.2812 166.767 24.1197 166.265 24.0104C165.764 23.8965 165.471 23.83 165.471 23.83C165.471 23.83 165.75 23.9392 166.232 24.1244C166.715 24.3049 167.406 24.5567 168.243 24.7799C169.081 24.9984 170.079 25.2122 171.153 25.2217C172.227 25.2454 173.381 25.0364 174.389 24.5567C175.411 24.0579 176.064 23.355 176.466 22.728C176.859 22.082 177.01 21.5073 177.048 21.0798C177.1 20.2058 176.887 19.9398 176.807 19.9588C176.689 19.9731 176.698 20.2628 176.528 20.9895ZM172.288 21.3363C172.061 21.6878 171.692 22.329 170.737 22.9132C169.786 23.5022 168.541 23.6637 167.595 23.6495C166.644 23.64 165.972 23.5592 165.972 23.5592C165.972 23.5592 166.611 23.7635 167.576 23.9012C168.527 24.0437 169.904 24.0152 170.992 23.3502C172.071 22.6947 172.449 21.9205 172.61 21.493C172.762 21.0418 172.724 20.8661 172.662 20.8518C172.591 20.8281 172.506 20.9658 172.288 21.3363ZM200.601 7.12951C199.962 7.32901 198.898 7.76599 197.511 8.88695C196.13 10.0222 195.037 11.6276 194.502 12.9718C194.223 13.6368 194.067 14.2305 193.972 14.6485C193.897 15.0665 193.854 15.3135 193.854 15.3135C193.854 15.3135 193.925 15.076 194.053 14.6675C194.19 14.2638 194.403 13.7033 194.734 13.0763C195.368 11.8129 196.518 10.3594 197.833 9.27644C199.163 8.20773 200.147 7.74224 200.734 7.462C201.325 7.19126 201.528 7.07251 201.509 7.00127C201.486 6.93952 201.245 6.93477 200.601 7.12951ZM197.038 6.0513C196.603 6.39804 195.912 7.04401 195.113 8.29322C194.323 9.54718 193.83 11.0766 193.67 12.2593C193.58 12.8531 193.561 13.3566 193.561 13.7128C193.57 14.069 193.575 14.2733 193.575 14.2733C193.575 14.2733 193.599 14.069 193.641 13.7175C193.693 13.3661 193.774 12.8768 193.92 12.3068C194.199 11.1669 194.791 9.75618 195.543 8.55921C196.305 7.367 196.925 6.71153 197.284 6.30779C197.653 5.9088 197.762 5.74256 197.715 5.68556C197.672 5.63806 197.483 5.70456 197.038 6.0513ZM188.276 10.6681C188.654 10.7631 189.307 10.8676 190.23 11.2904C191.162 11.7036 191.999 12.4208 192.539 13.0906C193.083 13.7508 193.39 14.278 193.39 14.278C193.39 14.278 193.201 13.6985 192.742 12.9433C192.297 12.1881 191.46 11.2856 190.443 10.8344C189.435 10.3784 188.725 10.3262 188.314 10.3167C187.897 10.3167 187.755 10.3879 187.755 10.4544C187.751 10.5256 187.888 10.5826 188.276 10.6681ZM193.144 7.43825C193.14 9.07695 193.386 10.9389 193.386 10.9389C193.386 10.9389 193.641 9.0817 193.646 7.443C193.651 5.80431 193.542 5.37682 193.4 5.37682C193.263 5.37207 193.149 5.79956 193.144 7.43825ZM189.771 8.07473C190.05 8.26472 190.528 8.55446 191.148 9.19094C191.763 9.82267 192.297 10.6301 192.648 11.2904C193.002 11.9506 193.206 12.4398 193.206 12.4398C193.206 12.4398 193.121 11.9174 192.879 11.1906C192.638 10.4686 192.189 9.53293 191.512 8.83946C190.84 8.15073 190.272 7.87524 189.932 7.75174C189.582 7.633 189.444 7.66149 189.421 7.72324C189.392 7.79449 189.487 7.88474 189.771 8.07473ZM131.263 12.1501C131.263 12.7961 131.783 13.3186 132.427 13.3186C133.07 13.3186 133.591 12.7961 133.591 12.1501C133.591 11.5041 133.07 10.9816 132.427 10.9816C131.783 10.9816 131.263 11.5041 131.263 12.1501ZM141.175 20.98C141.175 21.626 141.695 22.1485 142.339 22.1485C142.982 22.1485 143.503 21.626 143.503 20.98C143.503 20.3341 142.982 19.8116 142.339 19.8116C141.695 19.8068 141.175 20.3341 141.175 20.98ZM186.147 19.3746C186.147 20.0206 186.667 20.5431 187.311 20.5431C187.954 20.5431 188.475 20.0206 188.475 19.3746C188.475 18.7286 187.954 18.2061 187.311 18.2061C186.667 18.2061 186.147 18.7286 186.147 19.3746ZM200.729 14.278C200.729 14.924 201.249 15.4465 201.893 15.4465C202.536 15.4465 203.057 14.924 203.057 14.278C203.057 13.632 202.536 13.1096 201.893 13.1096C201.254 13.1048 200.729 13.632 200.729 14.278ZM6.57189 29.4158L104.37 29.3208C107 29.5298 109.626 29.2828 112.172 28.5893C114.741 27.8863 117.002 26.7891 118.9 25.3262C122.202 22.7755 124.222 19.3509 124.293 16.1685C124.303 15.8645 124.293 15.5605 124.27 15.2565C123.981 11.4566 121.459 8.56871 117.849 7.90374C114.741 7.33376 111.949 8.45947 110.553 10.8534C109.659 12.3828 109.408 14.3065 109.877 15.9975C110.288 17.4889 111.235 18.7001 112.536 19.4126C113.846 20.1298 115.044 20.3056 116.08 19.9398C117.168 19.5551 118.086 18.8094 118.663 17.8357C119.486 16.4582 119.562 14.7198 118.857 13.2948C118.214 11.9933 117.021 11.1574 115.588 11.0006C115.332 10.9674 115.105 11.1574 115.077 11.4139C115.048 11.6704 115.233 11.8984 115.488 11.9269C116.619 12.0503 117.523 12.6868 118.029 13.7128C118.592 14.8528 118.531 16.254 117.868 17.3607C117.404 18.1349 116.643 18.7571 115.767 19.0659C114.987 19.3414 114.05 19.1846 112.976 18.6004C111.594 17.8452 111.012 16.6387 110.771 15.7552C110.369 14.3018 110.587 12.6488 111.353 11.3331C112.777 8.88695 115.554 8.43097 117.679 8.8252C120.863 9.41419 123.087 11.9649 123.342 15.3325C123.361 15.608 123.371 15.8787 123.361 16.1542C123.295 19.0564 121.412 22.215 118.327 24.5947C116.524 25.9864 114.372 27.0313 111.921 27.7011C109.475 28.3661 106.958 28.6035 104.398 28.3993L6.57189 28.4848C6.31639 28.4848 6.10821 28.6938 6.10821 28.9503C6.10821 29.2115 6.31639 29.4158 6.57189 29.4158ZM75.9434 29.3208C76.8281 29.1545 77.9306 28.955 78.8863 28.4563C79.8657 27.9481 80.8782 27.3781 82.08 26.6561C84.3984 25.2644 86.5795 23.6447 88.6897 22.0773C89.9341 21.151 91.2163 20.1963 92.5127 19.3034C95.7395 17.0757 99.5624 14.8623 103.489 15.3277C105.988 15.627 108.434 16.9664 109.872 18.8236C110.993 20.2676 111.467 21.9443 111.239 23.678C111.055 25.1124 110.246 26.4139 109.134 27.0741C107.8 27.8673 106.059 27.9623 104.8 27.3068C103.305 26.5326 102.794 24.3524 103.267 22.8847C103.655 21.6878 104.578 20.8661 105.68 20.7426C105.936 20.7141 106.115 20.4813 106.087 20.2248C106.059 19.9683 105.836 19.7831 105.571 19.8163C104.105 19.9826 102.884 21.0513 102.382 22.5997C101.781 24.4617 102.439 27.1311 104.37 28.1381C105.926 28.9455 107.98 28.8458 109.602 27.8768C110.975 27.0598 111.93 25.5351 112.157 23.7967C112.413 21.8113 111.878 19.8971 110.601 18.2489C108.992 16.1732 106.371 14.734 103.594 14.4015C99.3637 13.8885 95.3468 16.2065 91.978 18.5339C90.6674 19.4411 89.3758 20.4006 88.1267 21.3268C86.0354 22.88 83.8732 24.4902 81.5974 25.8581C80.4098 26.5706 79.4115 27.1311 78.451 27.6298C77.6798 28.0288 76.8139 28.2093 75.7683 28.4041C75.5176 28.4516 75.3472 28.6938 75.3945 28.9455C75.4371 29.1688 75.6311 29.3303 75.8488 29.3303C75.8866 29.3303 75.915 29.3255 75.9434 29.3208ZM70.261 28.9265C70.2657 28.67 70.0623 28.4563 69.802 28.4516C66.6557 28.4041 63.6513 27.6583 61.1105 26.2951C57.7086 24.4712 55.0875 21.4788 53.9235 18.0874C53.7532 17.5934 53.6113 17.0947 53.4646 16.6007C53.0908 15.3135 52.7076 13.9788 51.8985 12.7961C50.5548 10.8296 47.8768 8.71596 44.7494 9.23369C42.8426 9.54718 41.2671 10.9151 40.8318 12.6393C40.3539 14.5345 41.4753 16.6529 43.2354 17.1754C44.1627 17.4462 45.2509 17.2134 46.0836 16.5627C46.8643 15.95 47.2854 15.0902 47.2428 14.202C47.2286 13.9455 47.0205 13.727 46.7555 13.7603C46.5 13.7698 46.3013 13.9883 46.3155 14.2495C46.3439 14.8338 46.0505 15.4085 45.5111 15.836C44.9103 16.3062 44.139 16.4819 43.5003 16.292C42.2181 15.912 41.3759 14.2828 41.7355 12.8768C42.0762 11.5326 43.3773 10.4164 44.9008 10.1647C47.4226 9.75617 49.8498 11.4566 51.132 13.3328C51.8559 14.392 52.2013 15.5985 52.5704 16.8714C52.717 17.3844 52.8684 17.8974 53.0388 18.4056C54.2784 22.0155 57.0557 25.1979 60.6658 27.1311C63.3343 28.5608 66.4901 29.3445 69.7831 29.3968C69.7879 29.3968 69.7879 29.3968 69.7926 29.3968C70.0528 29.3825 70.2563 29.1783 70.261 28.9265ZM55.4754 21.36C55.5369 20.8898 55.5795 20.3816 55.6221 19.8591C55.8256 17.4414 56.0527 14.7055 58.2149 13.6605C59.5397 13.0241 61.1294 13.2806 62.0899 14.2923C62.8469 15.095 63.1497 16.3015 62.8564 17.3654C62.563 18.4294 61.6877 19.3129 60.6279 19.6121C60.3819 19.6833 60.2352 19.9398 60.3062 20.1868C60.3771 20.4338 60.6326 20.5811 60.8787 20.5098C62.246 20.1251 63.3721 18.9851 63.7506 17.6124C64.1291 16.2397 63.7412 14.6818 62.7618 13.6463C61.5316 12.3448 59.4971 12.0028 57.8127 12.8198C55.1774 14.0975 54.9124 17.2467 54.6995 19.7783C54.6569 20.2913 54.6143 20.7853 54.5575 21.2413C54.5244 21.4978 54.7042 21.7305 54.9597 21.7638C54.9786 21.7685 55.0023 21.7685 55.0212 21.7685C55.2436 21.7685 55.4423 21.5975 55.4754 21.36ZM5.03892 27.7248C3.33089 27.7248 0 28.2331 0 28.86C0 29.487 3.33089 29.9952 5.03892 29.9952C6.74695 29.9952 7.42827 29.487 7.42827 28.86C7.42827 28.2378 6.74695 27.7248 5.03892 27.7248ZM96.9886 13.784C97.6699 13.613 98.7818 13.2378 100.599 13.0858C102.415 12.9291 104.379 13.1761 105.841 13.632C106.574 13.8505 107.18 14.1023 107.601 14.2923C108.022 14.4823 108.263 14.6105 108.263 14.6105C108.263 14.6105 108.06 14.43 107.681 14.1545C107.303 13.879 106.745 13.5085 106.025 13.1618C104.611 12.4446 102.51 11.9079 100.523 12.0788C98.5452 12.2498 97.3765 12.7676 96.7236 13.1238C96.0707 13.4943 95.9098 13.7365 95.9713 13.8553C96.0376 13.9835 96.3072 13.9693 96.9886 13.784ZM103.717 5.01583C103.551 5.58106 103.324 6.62128 103.698 8.18873C104.086 9.76092 105.183 11.1479 106.172 11.9269C106.664 12.3258 107.123 12.6013 107.45 12.7818C107.781 12.9481 107.975 13.0478 107.975 13.0478C107.975 13.0478 107.804 12.9148 107.516 12.6868C107.232 12.4493 106.839 12.1026 106.432 11.6561C105.604 10.7631 104.776 9.40469 104.431 8.00823C104.095 6.60703 104.213 5.68081 104.242 5.12508C104.299 4.56935 104.265 4.35085 104.161 4.31761C104.067 4.28436 103.915 4.44585 103.717 5.01583ZM107.681 4.25586C107.36 4.64059 106.877 5.39107 106.678 6.72103C106.48 8.06048 106.825 9.46643 107.223 10.4307C107.426 10.9199 107.615 11.3141 107.786 11.5849C107.961 11.8604 108.131 11.9459 108.131 11.9459C108.131 11.9459 107.989 11.8176 107.89 11.5326C107.795 11.2476 107.686 10.8154 107.582 10.3214C107.369 9.32394 107.246 8.00823 107.421 6.82552C107.601 5.64281 107.946 4.96358 108.126 4.54085C108.32 4.12286 108.368 3.94712 108.282 3.87587C108.216 3.81887 108.017 3.87112 107.681 4.25586ZM97.8449 10.4971C98.2093 10.4971 98.7959 10.4402 99.7233 10.4497C100.651 10.4687 101.649 10.5684 102.415 10.7299C103.182 10.8819 103.712 11.0671 103.712 11.0671C103.712 11.0671 103.272 10.7156 102.534 10.3689C101.8 10.0174 100.75 9.70868 99.7422 9.68968C98.7344 9.67543 98.1052 9.82742 97.7456 9.96517C97.386 10.1077 97.2866 10.2359 97.3103 10.3357C97.3387 10.4402 97.4806 10.5019 97.8449 10.4971ZM101.143 7.22926C101.318 7.81824 101.673 8.38347 101.999 8.75396C102.321 9.13395 102.6 9.33819 102.6 9.33819C102.6 9.33819 102.472 9.0152 102.326 8.56872C102.174 8.11748 102.018 7.54275 101.862 7.01077C101.569 5.95155 101.45 5.65706 101.223 5.67606C101.039 5.69031 100.816 6.0418 101.143 7.22926ZM68.5104 21.2793C68.3684 21.835 68.3069 22.6567 68.6854 23.6162C68.8747 24.0912 69.1775 24.5947 69.6507 25.0317C70.1238 25.4639 70.7057 25.8296 71.3965 26.1146C74.2117 27.2071 77.4385 26.6989 79.596 25.8534C80.689 25.4307 81.5548 24.9462 82.1415 24.5757C82.7282 24.2052 83.0499 23.9629 83.0499 23.9629C83.0499 23.9629 82.6998 24.1672 82.0847 24.4712C81.4649 24.7752 80.5707 25.1694 79.473 25.4924C77.3155 26.1431 74.2022 26.3996 71.6757 25.4117C70.4219 24.9034 69.6459 24.1387 69.3242 23.3407C68.9741 22.557 68.9741 21.8683 69.0308 21.379C69.187 20.3863 69.4519 20.0776 69.3336 20.0016C69.2911 19.9588 68.8463 20.1488 68.5104 21.2793ZM70.9423 21.0798C70.9802 21.512 71.1316 22.0868 71.5243 22.728C71.9264 23.355 72.5794 24.0579 73.6013 24.5567C74.6091 25.0364 75.7636 25.2454 76.8376 25.2217C77.9164 25.2122 78.91 24.9984 79.7521 24.7799C80.5943 24.5519 81.2804 24.3002 81.763 24.1244C82.2456 23.9392 82.5247 23.83 82.5247 23.83C82.5247 23.83 82.2314 23.8965 81.7299 24.0104C81.2283 24.1197 80.5186 24.2812 79.6717 24.4094C78.0015 24.6849 75.7257 24.7657 73.9278 23.8775C73.0525 23.45 72.4753 22.861 72.1015 22.3433C71.7372 21.816 71.5621 21.3505 71.4675 20.9895C71.2972 20.2628 71.3066 19.9731 71.1836 19.9588C71.1032 19.9446 70.8903 20.2106 70.9423 21.0798ZM75.3851 21.493C75.5459 21.9205 75.9245 22.6947 77.0032 23.3502C78.0914 24.0199 79.4683 24.0437 80.4193 23.9012C81.3845 23.7635 82.0232 23.5592 82.0232 23.5592C82.0232 23.5592 81.3513 23.64 80.4003 23.6495C79.4493 23.6637 78.2097 23.5022 77.2587 22.9132C76.303 22.3338 75.9339 21.6878 75.7068 21.3363C75.4892 20.9658 75.404 20.8281 75.333 20.8471C75.2763 20.8661 75.2384 21.0418 75.3851 21.493ZM47.2665 7.462C47.8532 7.73749 48.8373 8.20298 50.1668 9.27644C51.4821 10.3594 52.6319 11.8176 53.2659 13.0763C53.5923 13.6985 53.8053 14.2638 53.9472 14.6675C54.0702 15.076 54.1412 15.3135 54.1412 15.3135C54.1412 15.3135 54.0986 15.0665 54.0229 14.6485C53.9283 14.2305 53.7721 13.6415 53.493 12.9718C52.9631 11.6276 51.8654 10.0222 50.4838 8.88695C49.0975 7.76599 48.033 7.33376 47.3942 7.12951C46.746 6.93477 46.5095 6.93477 46.4905 7.00127C46.4716 7.07251 46.6751 7.19126 47.2665 7.462ZM50.7157 6.31254C51.08 6.71628 51.6951 7.37175 52.4568 8.56396C53.2091 9.76092 53.7958 11.1764 54.0797 12.3116C54.2263 12.8768 54.3068 13.3708 54.3588 13.7223C54.4014 14.0738 54.4251 14.278 54.4251 14.278C54.4251 14.278 54.4298 14.0738 54.4393 13.7175C54.4345 13.3613 54.4156 12.8578 54.3304 12.2641C54.1696 11.0766 53.6775 9.55193 52.8874 8.29797C52.0925 7.04877 51.397 6.40279 50.9617 6.05605C50.5169 5.70931 50.3277 5.64281 50.2851 5.69506C50.2378 5.74731 50.3513 5.91355 50.7157 6.31254ZM59.6816 10.3119C59.27 10.3214 58.5603 10.3737 57.5525 10.8296C56.5305 11.2809 55.6931 12.1833 55.2531 12.9386C54.7941 13.6938 54.6049 14.2733 54.6049 14.2733C54.6049 14.2733 54.9124 13.746 55.4565 13.0858C55.9959 12.4208 56.8381 11.6989 57.7654 11.2856C58.6928 10.8629 59.341 10.7631 59.7195 10.6634C60.1027 10.5779 60.2399 10.5209 60.2399 10.4449C60.2399 10.3832 60.098 10.3167 59.6816 10.3119ZM54.3494 7.43825C54.3541 9.07695 54.6096 10.9341 54.6096 10.9341C54.6096 10.9341 54.8556 9.0722 54.8509 7.4335C54.8462 5.79481 54.7326 5.36732 54.5954 5.36732C54.4582 5.37207 54.3446 5.79956 54.3494 7.43825ZM58.0682 7.75174C57.7276 7.87049 57.1598 8.14598 56.4879 8.83946C55.8114 9.53293 55.3619 10.4686 55.1206 11.1906C54.8745 11.9174 54.7941 12.4398 54.7941 12.4398C54.7941 12.4398 54.9976 11.9506 55.3524 11.2904C55.7025 10.6301 56.2372 9.82267 56.8523 9.19094C57.4721 8.55921 57.9499 8.26472 58.2291 8.07473C58.513 7.88949 58.6076 7.79449 58.584 7.72799C58.5556 7.66624 58.4184 7.63775 58.0682 7.75174ZM115.569 10.9816C114.925 10.9816 114.405 11.5041 114.405 12.1501C114.405 12.7961 114.925 13.3186 115.569 13.3186C116.212 13.3186 116.733 12.7961 116.733 12.1501C116.737 11.5041 116.212 10.9816 115.569 10.9816ZM105.661 19.8068C105.018 19.8068 104.497 20.3293 104.497 20.9753C104.497 21.6213 105.018 22.1438 105.661 22.1438C106.305 22.1438 106.825 21.6213 106.825 20.9753C106.825 20.3341 106.305 19.8068 105.661 19.8068ZM60.6894 18.2061C60.0459 18.2061 59.5255 18.7286 59.5255 19.3746C59.5255 20.0206 60.0459 20.5431 60.6894 20.5431C61.3329 20.5431 61.8533 20.0206 61.8533 19.3746C61.8533 18.7286 61.3329 18.2061 60.6894 18.2061ZM46.1026 13.1048C45.4591 13.1048 44.9386 13.6273 44.9386 14.2733C44.9386 14.9193 45.4591 15.4417 46.1026 15.4417C46.746 15.4417 47.2665 14.9193 47.2665 14.2733C47.2665 13.632 46.746 13.1048 46.1026 13.1048Z" fill="#312C20"/>
</svg>
